<svg xmlns="http://www.w3.org/2000/svg" fill="#b3c5d6" viewBox="0 0 1000 1000"  xmlns:v="https://vecta.io/nano"><path d="M500 10C229.4 10 10 229.4 10 500c0 270.7 219.4 490 490 490 270.7 0 490-219.3 490-490 0-270.6-219.3-490-490-490zm0 914.7C265.8 924.7 75.3 734.2 75.3 500S265.8 75.3 500 75.3 924.7 265.8 924.7 500 734.2 924.7 500 924.7zM680.8 273L501.3 452.6 340.2 273c-12.7-12.7-33.5-12.7-46.2 0s-12.7 33.5 0 46.2l161.1 179.6-182.1 182c-12.7 12.7-12.7 33.5 0 46.2s33.5 12.7 46.2 0l179.6-179.5L659.9 727c12.7 12.7 33.5 12.7 46.1 0 12.7-12.7 12.7-33.5 0-46.2L544.9 501.3 727 319.2c12.7-12.7 12.7-33.5 0-46.2s-33.4-12.8-46.2 0z"/></svg>