<?xml version="1.0" encoding="utf-8"?>
<!-- Svg Vector Icons : http://www.onlinewebfonts.com/icon -->
<!DOCTYPE svg PUBLIC "-//W3C//DTD SVG 1.1//EN" "http://www.w3.org/Graphics/SVG/1.1/DTD/svg11.dtd">
<svg version="1.1" xmlns="http://www.w3.org/2000/svg" xmlns:xlink="http://www.w3.org/1999/xlink" x="0px" y="0px" viewBox="0 0 1000 1000" enable-background="new 0 0 1000 1000" xml:space="preserve">
<metadata> Svg Vector Icons : http://www.onlinewebfonts.com/icon </metadata>
<g><g transform="translate(0.000000,512.000000) scale(0.100000,-0.100000)"><path d="M2934,5000.9c-24.9-15.3-28.7-170.3-34.5-1171.4l-5.7-1154.2l-137.8-70.8c-287.1-149.3-526.4-394.3-673.8-694.8c-166.5-340.7-151.2-9.6-157-3498.9l-5.7-3095l45.9-47.9l47.9-47.8h1504.5h1504.5l47.9,47.8l45.9,45.9l-5.7,3097c-5.7,3472.1,7.6,3156.3-147.4,3481.7c-143.6,296.7-371.3,534-673.8,700.5l-147.4,82.3l-1.9,1135c0,744.6-7.7,1148.4-19.1,1173.3c-19.1,34.5-45.9,36.4-589.5,36.4C3205.8,5020,2951.2,5012.3,2934,5000.9z M3546.5,2627.4v-285.2l-118.7-70.8c-400-233.5-639.3-532.1-702.5-876.6c-11.5-63.2-21.1-302.4-21.1-532.1V445.4h-220.1H2264v455.5c0,514.9,11.5,585.7,132.1,836.4c139.7,287.1,359.8,505.3,656.5,647l166.5,80.4l1.9,225.9v223.9h162.7h162.7V2627.4z M3653.6,77.9c67-61.3,91.9-103.3,116.8-191.4c28.7-99.5,36.4-109.1,70.8-97.6c23,9.6,86.1,15.3,141.6,15.3c118.7,0,157-34.5,157-137.8c0-210.5-187.6-382.8-398.1-365.6c-59.3,5.7-111,21-120.6,36.4c-9.6,15.3-17.2,70.8-17.2,124.4c0,103.4-30.6,151.2-82.3,132.1c-19.1-9.6-30.6-47.9-36.4-134c-3.8-67-13.4-130.1-23-137.8c-7.7-7.6-72.7-15.3-143.6-15.3c-147.4,0-229.7,42.1-308.2,158.9c-49.8,70.8-74.6,260.3-40.2,310.1c21.1,30.6,208.6,40.2,281.4,13.4c36.4-13.4,42.1-5.7,51.7,63.2c13.4,97.6,90,218.2,172.3,268c34.5,21.1,67,38.3,76.6,38.3C3559.9,158.3,3605.8,121.9,3653.6,77.9z M3075.6-915.5c99.5-78.5,132.1-199.1,80.4-300.5c-84.2-162.7-277.5-193.3-402-63.2c-147.4,153.1-34.5,403.9,179.9,403.9C2997.1-875.3,3039.2-886.8,3075.6-915.5z M3709.2-938.5c84.2-84.2,101.4-178,55.5-273.7c-47.9-97.6-120.6-147.4-214.4-147.4c-231.6,0-338.8,266-168.4,421.1c59.3,53.6,82.3,63.2,166.5,63.2C3632.6-875.3,3653.6-883,3709.2-938.5z M4289.1-913.6c124.4-76.6,147.4-245,49.8-363.7c-147.4-174.2-428.8-63.2-428.8,172.3c0,68.9,11.5,91.9,74.6,155c63.2,63.2,86.1,74.6,157,74.6C4191.5-875.3,4250.8-890.6,4289.1-913.6z M3316.8-1459.1c90-45.9,134-118.7,134-220.1c0-101.4-44-174.2-134-220.1c-160.8-82.3-344.5,36.4-344.5,222C2972.2-1491.6,3154.1-1374.9,3316.8-1459.1z M3988.6-1459.1c122.5-65.1,166.5-229.7,93.8-348.4c-107.2-176.1-357.9-151.2-432.6,44c-30.6,82.3-30.6,90,3.8,174.2C3711.1-1449.5,3858.4-1392.1,3988.6-1459.1z M3688.1-2044.8c99.5-78.5,132.1-199.1,80.4-300.5c-86.1-164.6-277.5-193.3-405.8-59.3c-47.9,49.8-55.5,72.7-55.5,162.7c0,97.6,5.7,111,70.8,172.3c61.2,55.5,86.1,65.1,166.5,65.1C3609.6-2004.6,3651.7-2016.1,3688.1-2044.8z M2704.3-3440.1v-765.6h-220.1H2264v765.6v765.6h220.1h220.1V-3440.1z"/><path d="M5822.3,680.8c-42.1-107.2-168.5-635.5-206.7-867.1c-49.8-302.4-97.6-763.7-97.6-932.1c1.9-455.5,256.5-884.3,662.3-1115.9c172.3-99.5,287.1-218.2,365.6-379l72.7-145.5v-650.8v-652.7l-53.6-109.1c-103.4-208.6-321.6-346.4-669.9-424.9c-170.4-38.3-195.2-49.7-201-86.1c-15.3-99.5-44-97.6,1104.4-97.6c585.7,0,1075.7,7.7,1089.1,17.2c15.3,7.6,23,38.3,19.1,68.9c-5.7,51.7-13.4,55.5-201,97.6c-350.3,78.5-581.9,227.8-681.4,442.2c-40.2,90-42.1,111-42.1,742.6v650.8l61.3,130.2c74.6,158.9,214.4,300.5,398.1,405.8c206.7,118.7,390.5,315.8,497.7,530.2c145.5,296.7,168.4,484.2,114.8,978.1c-51.7,482.3-143.6,962.8-254.6,1324.5l-34.4,114.8l-960.9,5.7l-960.9,3.8L5822.3,680.8z M7636.8,301.8c57.4-195.2,158.9-689.1,158.9-769.4v-63.2h-784.8h-782.9l-19.1-70.8c-86.1-321.6-80.4-813.5,9.6-1198.2c17.2-70.8,26.8-134,23-137.8c-21-21.1-241.2,183.7-312,289c-201,292.9-223.9,601-103.4,1337.9c36.4,225.8,128.2,618.2,168.5,723.5l21,51.7l788.6-3.8l788.6-5.7L7636.8,301.8z"/></g></g>
</svg>